<svg xmlns="http://www.w3.org/2000/svg" height="24" width="24"><path d="m16.325 22.475-.35-1.7q-.175-.075-.35-.188-.175-.112-.35-.187l-1.65.525-1.45-2.5 1.3-1.15q-.025-.175-.012-.4.012-.225.012-.4L12.2 15.3l1.425-2.475 1.65.525q.2-.075.363-.188.162-.112.337-.212l.35-1.7h2.925l.35 1.7q.15.1.338.212.187.113.387.238l1.6-.575 1.5 2.5-1.35 1.2q.075.175.05.375-.025.2-.05.375l1.325 1.15-1.475 2.5-1.6-.525q-.2.075-.387.175-.188.1-.338.2l-.35 1.7ZM.8 21.85v-3.975q0-1.275.688-2.225.687-.95 1.462-1.325 1.45-.75 3.3-1.225 1.85-.475 3.7-.475.2 0 .588.012.387.013.637.038-1.3 2.45-1.113 4.75.188 2.3 1.938 4.425Zm17-3.1q.75 0 1.3-.562.55-.563.55-1.313t-.55-1.313Q18.55 15 17.8 15q-.775 0-1.325.562-.55.563-.55 1.313t.55 1.313q.55.562 1.325.562Zm-7.85-7.3q-2.125 0-3.6-1.475T4.875 6.4q0-2.125 1.475-3.575 1.475-1.45 3.6-1.45 2.1 0 3.575 1.45T15 6.4q0 2.1-1.475 3.575T9.95 11.45Z"/></svg>